<svg width="38" height="38" viewBox="0 0 38 38" fill="none" xmlns="http://www.w3.org/2000/svg">
<g clip-path="url(#clip0_1_2976)">
<path d="M32.6484 13.3793C30.9859 6.06433 24.605 2.771 19 2.771C19 2.771 19 2.771 18.9842 2.771C13.395 2.771 6.99836 6.0485 5.33586 13.3635C3.48336 21.5335 8.4867 28.4527 13.015 32.8068C14.6934 34.4218 16.8467 35.2293 19 35.2293C21.1534 35.2293 23.3067 34.4218 24.9692 32.8068C29.4975 28.4527 34.5009 21.5493 32.6484 13.3793ZM19 21.3118C16.245 21.3118 14.0125 19.0793 14.0125 16.3243C14.0125 13.5693 16.245 11.3368 19 11.3368C21.755 11.3368 23.9875 13.5693 23.9875 16.3243C23.9875 19.0793 21.755 21.3118 19 21.3118Z" fill="#926228"/>
</g>
<defs>
<clipPath id="clip0_1_2976">
<rect width="38" height="38" fill="white"/>
</clipPath>
</defs>
</svg>
