<svg width="101" height="101" viewBox="0 0 101 101" fill="none" xmlns="http://www.w3.org/2000/svg">
<circle cx="50.5" cy="50.5" r="50.5" fill="#D9D9D9"/>
<path d="M29.8568 43.271V17.4489H34.5345V39.3498H45.9073V43.271H29.8568ZM72.0351 30.36C72.0351 33.1422 71.514 35.5252 70.4717 37.5089C69.4378 39.4843 68.0256 40.9973 66.2352 42.048C64.4532 43.0987 62.4317 43.624 60.1706 43.624C57.9095 43.624 55.8837 43.0987 54.0933 42.048C52.3113 40.9889 50.8992 39.4717 49.8569 37.4963C48.823 35.5126 48.306 33.1338 48.306 30.36C48.306 27.5777 48.823 25.1989 49.8569 23.2236C50.8992 21.2399 52.3113 19.7227 54.0933 18.6719C55.8837 17.6212 57.9095 17.0959 60.1706 17.0959C62.4317 17.0959 64.4532 17.6212 66.2352 18.6719C68.0256 19.7227 69.4378 21.2399 70.4717 23.2236C71.514 25.1989 72.0351 27.5777 72.0351 30.36ZM67.3322 30.36C67.3322 28.4015 67.0254 26.7497 66.4117 25.4048C65.8065 24.0515 64.966 23.0303 63.8901 22.341C62.8141 21.6433 61.5743 21.2945 60.1706 21.2945C58.7668 21.2945 57.527 21.6433 56.4511 22.341C55.3752 23.0303 54.5304 24.0515 53.9168 25.4048C53.3116 26.7497 53.009 28.4015 53.009 30.36C53.009 32.3185 53.3116 33.9744 53.9168 35.3277C54.5304 36.6726 55.3752 37.6939 56.4511 38.3915C57.527 39.0808 58.7668 39.4254 60.1706 39.4254C61.5743 39.4254 62.8141 39.0808 63.8901 38.3915C64.966 37.6939 65.8065 36.6726 66.4117 35.3277C67.0254 33.9744 67.3322 32.3185 67.3322 30.36ZM43.3068 65.6948C43.0967 65.014 42.8067 64.4046 42.4368 63.8666C42.0754 63.3203 41.6383 62.8537 41.1255 62.4671C40.6212 62.0804 40.0412 61.7904 39.3856 61.5971C38.7299 61.3954 38.0155 61.2945 37.2421 61.2945C35.8552 61.2945 34.6196 61.6433 33.5353 62.341C32.4509 63.0387 31.5978 64.0642 30.9758 65.4175C30.3621 66.7624 30.0553 68.4015 30.0553 70.3347C30.0553 72.2848 30.3621 73.9366 30.9758 75.2899C31.5894 76.6432 32.4425 77.6729 33.5353 78.3789C34.628 79.0766 35.8972 79.4254 37.343 79.4254C38.6543 79.4254 39.789 79.1733 40.7473 78.6689C41.7139 78.1646 42.4578 77.4501 42.979 76.5255C43.5001 75.5925 43.7607 74.4997 43.7607 73.2473L44.8198 73.4112H37.8095V69.7548H48.2871V72.8564C48.2871 75.0671 47.8164 76.9794 46.875 78.5933C45.9336 80.2071 44.6391 81.4512 42.9916 82.3254C41.3441 83.1911 39.4528 83.624 37.3178 83.624C34.939 83.624 32.8502 83.0903 31.0514 82.0228C29.261 80.9468 27.8615 79.4212 26.8528 77.4459C25.8525 75.4622 25.3524 73.1086 25.3524 70.3852C25.3524 68.3006 25.6466 66.4387 26.235 64.7996C26.8318 63.1605 27.6639 61.7694 28.7315 60.6263C29.799 59.4747 31.0514 58.6005 32.4888 58.0037C33.9261 57.3985 35.4896 57.0959 37.1791 57.0959C38.6081 57.0959 39.9403 57.306 41.176 57.7263C42.4116 58.1382 43.5085 58.7266 44.4668 59.4915C45.4334 60.2564 46.2277 61.1642 46.8498 62.2149C47.4718 63.2656 47.8795 64.4256 48.0728 65.6948H43.3068ZM75.8838 70.36C75.8838 73.1422 75.3627 75.5252 74.3204 77.5089C73.2865 79.4843 71.8743 80.9973 70.084 82.048C68.302 83.0987 66.2804 83.624 64.0193 83.624C61.7582 83.624 59.7324 83.0987 57.942 82.048C56.16 80.9889 54.7479 79.4717 53.7056 77.4963C52.6717 75.5126 52.1548 73.1338 52.1548 70.36C52.1548 67.5777 52.6717 65.1989 53.7056 63.2236C54.7479 61.2399 56.16 59.7227 57.942 58.6719C59.7324 57.6212 61.7582 57.0959 64.0193 57.0959C66.2804 57.0959 68.302 57.6212 70.084 58.6719C71.8743 59.7227 73.2865 61.2399 74.3204 63.2236C75.3627 65.1989 75.8838 67.5777 75.8838 70.36ZM71.1809 70.36C71.1809 68.4015 70.8741 66.7497 70.2605 65.4048C69.6553 64.0515 68.8147 63.0303 67.7388 62.341C66.6629 61.6433 65.423 61.2945 64.0193 61.2945C62.6156 61.2945 61.3757 61.6433 60.2998 62.341C59.2239 63.0303 58.3791 64.0515 57.7655 65.4048C57.1603 66.7497 56.8577 68.4015 56.8577 70.36C56.8577 72.3185 57.1603 73.9744 57.7655 75.3277C58.3791 76.6726 59.2239 77.6939 60.2998 78.3915C61.3757 79.0808 62.6156 79.4254 64.0193 79.4254C65.423 79.4254 66.6629 79.0808 67.7388 78.3915C68.8147 77.6939 69.6553 76.6726 70.2605 75.3277C70.8741 73.9744 71.1809 72.3185 71.1809 70.36Z" fill="black"/>
</svg>
