<svg width="50" height="50" viewBox="0 0 50 50" fill="none" xmlns="http://www.w3.org/2000/svg">
<path d="M45.341 24.7316C45.341 13.3757 36.0873 4.12207 24.7315 4.12207C13.3756 4.12207 4.12195 13.3757 4.12195 24.7316C4.12195 30.7083 6.69814 36.0874 10.7788 39.859C10.7788 39.8796 10.7788 39.8796 10.7582 39.9002C10.9643 40.1063 11.2116 40.2712 11.4177 40.4566C11.5414 40.5597 11.6444 40.6627 11.7681 40.7452C12.1391 41.0543 12.5512 41.3429 12.9428 41.6314C13.0871 41.7344 13.2107 41.8169 13.355 41.9199C13.7466 42.1878 14.1588 42.4352 14.5916 42.6619C14.7358 42.7443 14.9007 42.8474 15.045 42.9298C15.4572 43.1565 15.89 43.3626 16.3434 43.5481C16.5083 43.6305 16.6731 43.713 16.838 43.7748C17.2914 43.9603 17.7448 44.1251 18.1982 44.2694C18.3631 44.3312 18.528 44.3931 18.6929 44.4343C19.1875 44.5786 19.6821 44.7022 20.1768 44.8259C20.321 44.8671 20.4653 44.9083 20.6302 44.9289C21.2072 45.0526 21.7843 45.135 22.382 45.1968C22.4644 45.1968 22.5469 45.2174 22.6293 45.2381C23.33 45.2999 24.0307 45.3411 24.7315 45.3411C25.4322 45.3411 26.1329 45.2999 26.813 45.2381C26.8955 45.2381 26.9779 45.2174 27.0603 45.1968C27.658 45.135 28.2351 45.0526 28.8121 44.9289C28.9564 44.9083 29.1007 44.8465 29.2656 44.8259C29.7602 44.7022 30.2754 44.5992 30.7494 44.4343C30.9143 44.3725 31.0792 44.3106 31.2441 44.2694C31.6975 44.1045 32.1715 43.9603 32.6043 43.7748C32.7692 43.713 32.9341 43.6305 33.0989 43.5481C33.5317 43.3626 33.9645 43.1565 34.3973 42.9298C34.5622 42.8474 34.7065 42.7443 34.8507 42.6619C35.2629 42.4146 35.6751 42.1878 36.0873 41.9199C36.2316 41.8375 36.3552 41.7344 36.4995 41.6314C36.9117 41.3429 37.3033 41.0543 37.6742 40.7452C37.7979 40.6421 37.9009 40.5391 38.0246 40.4566C38.2513 40.2712 38.478 40.0857 38.6841 39.9002C38.6841 39.8796 38.6841 39.8796 38.6635 39.859C42.7648 36.0874 45.341 30.7083 45.341 24.7316ZM34.9126 34.9745C29.3274 31.2236 20.1768 31.2236 14.5504 34.9745C13.6435 35.5722 12.9016 36.2729 12.2833 37.0355C9.15067 33.8616 7.21338 29.513 7.21338 24.7316C7.21338 15.0657 15.0656 7.2135 24.7315 7.2135C34.3973 7.2135 42.2496 15.0657 42.2496 24.7316C42.2496 29.513 40.3123 33.8616 37.1796 37.0355C36.5819 36.2729 35.8194 35.5722 34.9126 34.9745Z" fill="#1D262A" fill-opacity="0.59"/>
<path d="M24.7314 14.2827C20.4652 14.2827 17.0028 17.7451 17.0028 22.0113C17.0028 26.195 20.2797 29.5956 24.6283 29.7192C24.6902 29.7192 24.7726 29.7192 24.8138 29.7192C24.855 29.7192 24.9169 29.7192 24.9581 29.7192C24.9787 29.7192 24.9993 29.7192 24.9993 29.7192C29.1624 29.575 32.4393 26.195 32.4599 22.0113C32.4599 17.7451 28.9975 14.2827 24.7314 14.2827Z" fill="#1D262A" fill-opacity="0.59"/>
</svg>
