<svg width="490" height="463" viewBox="0 0 490 463" fill="none" xmlns="http://www.w3.org/2000/svg">
<g clip-path="url(#clip0_1_1085)">
<path d="M251.228 344.953L242.829 358.56L240.068 362.455L254.897 370.481L264.912 353.957L251.228 344.953Z" fill="#EFC79C"/>
<path d="M232.545 200.197C232.545 200.197 321.87 228.271 334.174 243.227C346.494 258.2 266.073 356.722 266.073 356.722L247.676 345.678C247.676 345.678 273.866 281.048 296.622 269.7C301.167 261.893 254.678 256.379 215.444 253.934C176.209 251.489 183.498 228.052 196.172 199.303C219.147 189.456 232.545 200.18 232.545 200.18V200.197Z" fill="#D2A54C"/>
<path d="M222.294 67.4797C222.294 67.4797 231.754 47.9878 233.05 36.7581C246.717 54.5132 257.809 63.062 258.061 63.8545C247.205 75.4889 244.764 93.5307 244.764 93.5307L222.277 67.4966L222.294 67.4797Z" fill="#F7C58D"/>
<path d="M88.6855 300.59H73.8569C69.8173 300.573 66.0302 302.478 63.6233 305.733L51.1006 322.763C48.0036 326.978 47.8016 332.677 50.5957 337.095L56.7728 346.841L88.6855 300.573V300.59Z" fill="#EDA3BF"/>
<path d="M49.8214 328.597L62.3441 311.567C64.7342 308.313 68.5381 306.39 72.5777 306.39H84.6627L88.6686 300.59H73.84C69.8005 300.573 66.0134 302.478 63.6064 305.733L51.0838 322.763C49.3838 325.073 48.5927 327.821 48.6432 330.553C48.9798 329.878 49.3501 329.204 49.8046 328.58L49.8214 328.597Z" fill="#FF7190"/>
<path d="M434.304 463C465.055 463 489.983 438.027 489.983 407.222C489.983 376.417 465.055 351.444 434.304 351.444C403.554 351.444 378.626 376.417 378.626 407.222C378.626 438.027 403.554 463 434.304 463Z" fill="#333333"/>
<path d="M434.304 450.269C458.037 450.269 477.275 430.996 477.275 407.222C477.275 383.448 458.037 364.175 434.304 364.175C410.572 364.175 391.334 383.448 391.334 407.222C391.334 430.996 410.572 450.269 434.304 450.269Z" fill="#FFECC5"/>
<path d="M434.305 440.355C452.571 440.355 467.378 425.521 467.378 407.222C467.378 388.923 452.571 374.089 434.305 374.089C416.038 374.089 401.231 388.923 401.231 407.222C401.231 425.521 416.038 440.355 434.305 440.355Z" fill="#E2E2E2"/>
<path d="M434.304 435.785C450.052 435.785 462.817 422.997 462.817 407.222C462.817 391.447 450.052 378.659 434.304 378.659C418.557 378.659 405.792 391.447 405.792 407.222C405.792 422.997 418.557 435.785 434.304 435.785Z" fill="#A5A5A5"/>
<path d="M418.271 344.38L405.974 348.937L429.022 411.355L441.319 406.798L418.271 344.38Z" fill="#E2E2E2"/>
<path d="M434.304 415.822C439.045 415.822 442.889 411.971 442.889 407.222C442.889 402.473 439.045 398.623 434.304 398.623C429.564 398.623 425.72 402.473 425.72 407.222C425.72 411.971 429.564 415.822 434.304 415.822Z" fill="#333333"/>
<path d="M434.304 411.589C436.712 411.589 438.664 409.634 438.664 407.222C438.664 404.81 436.712 402.855 434.304 402.855C431.897 402.855 429.945 404.81 429.945 407.222C429.945 409.634 431.897 411.589 434.304 411.589Z" fill="#7F7F7F"/>
<path d="M121.608 462.578C152.358 462.578 177.287 437.606 177.287 406.801C177.287 375.995 152.358 351.023 121.608 351.023C90.8574 351.023 65.9292 375.995 65.9292 406.801C65.9292 437.606 90.8574 462.578 121.608 462.578Z" fill="#333333"/>
<path d="M121.608 449.848C145.34 449.848 164.579 430.575 164.579 406.801C164.579 383.026 145.34 363.753 121.608 363.753C97.8758 363.753 78.637 383.026 78.637 406.801C78.637 430.575 97.8758 449.848 121.608 449.848Z" fill="#FFECC5"/>
<path d="M121.608 439.933C139.874 439.933 154.682 425.099 154.682 406.801C154.682 388.502 139.874 373.668 121.608 373.668C103.342 373.668 88.534 388.502 88.534 406.801C88.534 425.099 103.342 439.933 121.608 439.933Z" fill="#E2E2E2"/>
<path d="M121.608 435.364C137.355 435.364 150.121 422.576 150.121 406.801C150.121 391.026 137.355 378.237 121.608 378.237C105.861 378.237 93.0953 391.026 93.0953 406.801C93.0953 422.576 105.861 435.364 121.608 435.364Z" fill="#A5A5A5"/>
<path d="M121.608 415.4C126.349 415.4 130.192 411.55 130.192 406.801C130.192 402.051 126.349 398.201 121.608 398.201C116.867 398.201 113.024 402.051 113.024 406.801C113.024 411.55 116.867 415.4 121.608 415.4Z" fill="#333333"/>
<path d="M121.608 411.168C124.016 411.168 125.967 409.212 125.967 406.8C125.967 404.389 124.016 402.433 121.608 402.433C119.2 402.433 117.249 404.389 117.249 406.8C117.249 409.212 119.2 411.168 121.608 411.168Z" fill="#7F7F7F"/>
<path d="M390.155 368.39C390.155 368.39 435.752 345.947 484.16 358.425C483.806 333.2 464.483 299.022 406.751 312.916C349.019 326.809 390.155 368.39 390.155 368.39Z" fill="#D2A54C"/>
<path d="M403.452 315.816C393.589 318.193 386.621 321.38 381.824 325.022C379.939 326.995 378.575 329.052 377.633 331.16C382.329 327.99 388.809 325.225 397.629 323.1C446.221 311.398 467.58 333.757 473.354 356.182C475.777 356.57 478.218 357.025 480.675 357.582C478.538 332.88 458.39 302.596 403.469 315.816H403.452Z" fill="#FEC568"/>
<path d="M376.757 143.002C376.757 143.002 389.044 164.72 377.784 180.603C368.106 178.209 376.757 143.002 376.757 143.002Z" fill="#EFEFEF"/>
<path d="M406.751 312.916L424.576 307.891C424.576 307.891 407.98 257.812 364.302 182.863C360.431 184.532 356.055 185.881 356.055 185.881L406.751 312.932V312.916Z" fill="#D2A54C"/>
<path d="M339.896 186.505C339.896 186.505 378.407 278.687 355.869 328.867C351.443 345.947 372.97 341.327 372.97 341.327C372.97 341.327 397.629 285.735 346.309 182.829C343.919 181.396 339.913 186.505 339.913 186.505H339.896Z" fill="#D2A54C"/>
<path d="M266.831 267.71L144.415 267.541C124.789 267.508 62.7649 294.334 43.5601 377.613L163.586 377.765C178.566 377.782 181.511 404.693 181.511 404.693L331.733 404.895C349.288 404.912 380.376 337.179 363.898 302.495C356.627 338.697 340.586 357.312 322.492 362.455C308.59 366.417 267.807 366.063 249.713 365.675C244.344 365.557 239.765 361.797 238.587 356.536C236.332 346.487 233.605 329.676 236.315 315.243C240.472 293.002 264.76 289.933 266.847 267.676L266.831 267.71Z" fill="#D2A54C"/>
<path d="M40.968 382.284L187.402 382.469C187.402 382.469 208.762 336.707 191.762 310.69C174.762 284.673 104.625 292.732 74.7658 319.07C44.9066 345.425 40.9848 382.284 40.9848 382.284H40.968Z" fill="#FEC568"/>
<path d="M182.589 382.469C186.83 372.201 199.185 338.073 185.45 317.232C169.999 293.778 108.816 299.46 78.1152 321.464C110.6 305.783 159.479 303.912 173.045 324.516C184.39 341.749 177.909 368.07 172.927 382.469H182.572H182.589Z" fill="#FFE10B"/>
<path d="M177.32 389.062L299.736 389.231C326.465 389.265 379.181 347.819 368.628 284.15C358.074 220.498 341.832 190.198 341.832 190.198L360.431 184.532C360.431 184.532 395.979 253.917 403.705 274.623C411.43 295.329 422.977 350.972 381.083 389.332C364.016 403.664 350.837 409.465 331.481 409.448L182.723 409.245L177.32 389.062Z" fill="#FEC568"/>
<path d="M403.688 274.623C395.962 253.917 360.414 184.532 360.414 184.532L353.479 186.64C362.03 204.463 386.671 256.632 392.057 276.411C397.881 297.74 410.235 354.884 368.342 393.244C360.195 400.09 352.941 404.963 345.484 408.2C357.94 405.839 368.443 399.921 381.066 389.315C422.96 350.955 411.397 295.312 403.688 274.606V274.623Z" fill="#FFE10B"/>
<path d="M302.429 394.593C329.158 394.627 383.591 351.292 373.021 287.64C363.494 230.176 347.117 195.695 344.02 189.523L341.815 190.198C341.815 190.198 358.041 220.481 368.611 284.15C379.164 347.802 326.448 389.265 299.719 389.231L177.304 389.062L178.734 394.441L302.412 394.61L302.429 394.593Z" fill="#4C4C4C"/>
<path d="M152.528 241.17C152.528 241.17 133.121 267.525 153.453 267.558L266.831 267.71C272.385 267.71 279.959 246.38 269.709 245.588C259.458 244.795 227.68 248.64 203.662 243.177C179.66 237.713 159.9 232.638 152.528 241.17Z" fill="#4C4C4C"/>
<path d="M340.283 191.749C340.283 191.749 365.093 183.639 368.19 182.863C371.287 182.087 377.868 181.329 377.868 181.329C377.868 181.329 373.846 151.45 377.919 143.104C369.217 134.757 357.014 137.455 344.205 149.46C331.413 161.466 326.953 163.607 327.912 166.895C328.872 170.183 340.283 191.749 340.283 191.749Z" fill="#FEC568"/>
<path d="M342.32 161.752L341.445 160.269L359.034 149.865C360.33 149.089 361.256 147.808 361.559 146.324L368.476 112.298L370.176 112.635L363.259 146.661C362.855 148.617 361.643 150.337 359.926 151.349L342.337 161.752H342.32Z" fill="#A5A5A5"/>
<path d="M351.937 168.173C351.945 162.25 347.445 157.442 341.886 157.435C336.328 157.427 331.814 162.222 331.806 168.145C331.798 174.067 336.298 178.875 341.857 178.882C347.415 178.89 351.928 174.095 351.937 168.173Z" fill="#EFC100"/>
<path d="M318.234 158.936C318.234 158.936 329.511 158.565 333.601 154.822C337.691 151.079 342.202 151.197 346.326 154.654C350.45 158.11 353.665 165.04 351.897 168.901C350.13 172.763 345.855 174.432 342.892 173.387C344.054 176.101 337.641 176.506 334.46 175.376C331.279 174.247 323.789 172.324 320.826 172.982C318.251 169.61 318.268 158.953 318.268 158.953L318.234 158.936Z" fill="#FCBC08"/>
<path d="M336.076 183.689C338.381 188.157 340.283 191.749 340.283 191.749C340.283 191.749 365.093 183.639 368.19 182.863C371.287 182.087 377.868 181.329 377.868 181.329C377.868 181.329 377.128 175.849 376.606 168.935C366.793 179.305 351.274 182.812 336.076 183.706V183.689Z" fill="#D2A54C"/>
<path d="M340.704 171.583C343.809 171.583 346.326 169.061 346.326 165.951C346.326 162.841 343.809 160.319 340.704 160.319C337.599 160.319 335.083 162.841 335.083 165.951C335.083 169.061 337.599 171.583 340.704 171.583Z" fill="#353535"/>
<path d="M372.079 108.926C373.577 100.103 371.983 92.4727 368.518 91.8826C365.054 91.2926 361.032 97.9663 359.535 106.789C358.037 115.611 359.632 123.242 363.096 123.832C366.56 124.422 370.582 117.748 372.079 108.926Z" fill="#FEC568"/>
<path d="M368.781 108.358C369.975 101.326 369.159 95.3213 366.96 94.9467C364.76 94.572 362.01 99.9691 360.816 107.001C359.623 114.034 360.438 120.038 362.637 120.413C364.837 120.788 367.587 115.39 368.781 108.358Z" fill="#EFEFEF"/>
<path d="M270.921 349.218L264.71 363.955L262.572 368.221L278.444 373.887L285.833 356.03L270.921 349.218Z" fill="#FFDAAE"/>
<path d="M233.992 204.614C233.992 204.614 325.909 222.369 339.846 235.842C353.766 249.314 286.692 359.335 286.692 359.335L267.167 350.449C267.167 350.449 284.201 280.255 305.526 266.411C309.145 258.132 262.337 257.947 223.085 259.953C183.834 261.977 170.958 234.526 180.283 204.53C201.995 192.137 233.992 204.597 233.992 204.597V204.614Z" fill="#FCBC08"/>
<path d="M286.675 359.318C286.675 359.318 353.766 249.297 339.829 235.825C329.528 225.86 276.627 213.568 249.73 207.835C241.701 208.273 230.929 210.887 221.705 220.11C243.014 215.675 310.778 231.289 323.957 234.796C337.136 238.303 338.079 245.099 333.803 256.548C329.68 267.609 293.121 341.901 283.46 357.852L286.692 359.318H286.675Z" fill="#D2A54C"/>
<path d="M179.105 211.325C179.105 211.325 170.066 112.415 222.294 67.4795C235.204 73.1955 245.505 88.2023 250.655 101.152C255.806 114.102 252.086 196.352 250.521 202.557C250.117 204.176 246.161 206.064 240.169 207.835C223.186 212.859 194.371 217.463 179.105 211.325Z" fill="#FCBC08"/>
<path d="M221.705 213.888C221.705 213.888 241.6 205.474 244.495 165.833C247.39 126.191 246.902 107.694 246.902 107.694C246.902 107.694 256.159 137.185 256.647 157.301C257.136 177.417 254.005 199.657 250.117 209.234C246.229 218.795 221.705 213.888 221.705 213.888Z" fill="#FCBC08"/>
<path d="M226.351 114.506C229.229 131.924 238.856 174.011 246.666 182.121C259.593 195.526 321.819 177.889 321.819 177.889L319.783 158.953C300.409 158.667 274.068 158.616 269.944 156.795C265.821 154.974 257.539 114.051 255.234 105.502C252.928 96.9536 246.414 91.7602 235.557 92.2661C224.701 92.7719 225.324 108.335 226.351 114.506Z" fill="#E8AC04"/>
<path d="M184.137 214.546C184.137 214.546 182.656 157.621 192.772 135.297C209.856 106.75 223.422 93.5982 231.754 91.0016C240.085 88.4049 247.07 93.4296 247.07 93.4296C247.07 93.4296 245.034 88.3543 242.728 86.1792C240.422 84.004 230.609 81.6097 221.89 88.0002C213.172 94.3907 190.045 122.246 185.652 132.886C179.492 147.808 178.549 162.359 178.263 212.809C179.593 215.524 184.154 214.563 184.154 214.563L184.137 214.546Z" fill="#FCBC08"/>
<path d="M264.71 363.956C264.71 363.956 267.941 372.218 279.303 371.83C286.776 378.524 305.947 378.743 312.663 378.49C319.379 378.237 317.039 386.263 307.479 388.826C297.918 391.406 257.893 389.147 253.769 389.147C249.646 389.147 255.856 368.711 264.71 363.939V363.956Z" fill="black"/>
<path d="M278.68 50.028C279.488 47.4651 275.011 42.5584 278.697 34.8021C282.383 27.0458 272.318 20.3349 272.318 20.3349C272.318 20.3349 272.116 20.6216 271.779 21.0937C267.218 13.5566 260.047 8.66676 251.968 8.66676C238.15 8.6499 226.94 22.7967 226.923 40.2652C226.906 57.7337 238.099 71.341 251.901 71.3747C252.271 71.3747 252.642 71.8805 253.012 71.8637C258.482 75.4552 266.006 72.2178 266.948 69.7223C268.11 66.6197 268.85 64.7818 270.735 64.7818C272.621 64.7818 272.132 62.3538 270.735 61.1398C271.762 61.477 273.832 61.2915 273.496 60.5496C273.159 59.8077 273.832 58.2733 274.354 54.3108C279.32 56.4691 280.144 51.3938 278.68 50.028Z" fill="#F7C58D"/>
<path d="M223.86 54.1255L224.449 62.7585C224.449 62.7585 239.042 67.1425 243.317 58.4589C247.592 49.7752 223.86 54.1086 223.86 54.1086V54.1255Z" fill="#353535"/>
<path d="M267.403 37.3989C267.403 37.3989 273.933 35.3418 276.189 37.3989C276.441 38.1071 275.701 39.0176 274.472 38.7478C273.243 38.478 269.305 37.5506 267.403 37.382V37.3989Z" fill="#353535"/>
<path d="M279.134 46.5379C277.131 46.4367 265.147 46.4873 260.738 46.5041V46.4535L252.911 43.9243L252.44 45.4081L259.256 47.617C259.576 52.4562 255.52 58.1217 253.618 60.4992L249.999 55.4239L248.737 56.3175L252.709 61.8987C253.046 63.197 255.082 69.4864 263.851 73.4657C274.573 69.6212 282.215 52.7597 279.118 46.5547L279.134 46.5379Z" fill="#BBE0FF"/>
<path d="M265.669 31.6995C266.494 31.8344 277.923 33.0822 282.046 38.7645C285.379 35.898 280.767 31.1262 280.767 31.1262L265.669 31.6827V31.6995Z" fill="#353535"/>
<path d="M260.081 31.5985C260.081 31.5985 281.794 34.2964 288.375 36.8256C292.078 20.3351 280.666 6.52548 262.656 1.45017C244.647 -3.62514 225.728 5.00794 219.5 21.8863C213.273 38.7647 217.329 46.3523 221.402 52.6754C224.684 57.8013 229.818 61.5277 244.377 60.6678C253.971 60.0945 254.022 46.3018 255.351 41.1759C256.715 35.9319 257.169 30.9072 260.081 31.5985Z" fill="#FEC568"/>
<path d="M262.37 1.4332C251.177 -1.70304 239.648 0.455237 231.03 6.57596C237.998 4.16477 245.842 3.79381 253.55 5.95209C269.103 10.3024 279.74 21.1949 279.993 34.701C283.342 35.3585 286.321 36.0667 288.139 36.7749C291.825 20.2844 280.397 6.47479 262.387 1.4332H262.37Z" fill="#FFE10B"/>
<path d="M257.893 29.2885C254.981 28.5803 254.527 33.6219 253.163 38.8658C251.834 43.9917 251.783 57.7844 242.189 58.3577C231.568 58.9816 225.98 57.1774 222.446 54.1592C225.795 58.4926 231.249 61.4602 244.377 60.6846C253.971 60.1113 254.022 46.3186 255.351 41.1927C256.715 35.9487 257.169 30.924 260.081 31.6153C260.081 31.6153 281.794 34.3132 288.375 36.8424C288.611 35.8307 288.779 34.819 288.88 33.8242C282.063 31.3287 257.876 29.3053 257.876 29.3053L257.893 29.2885Z" fill="#353535"/>
<path opacity="0.49" d="M290.395 30.9072C290.395 30.9072 291.068 56.385 271.442 76.7031C265.602 79.5864 245.353 71.9819 248.366 51.7818C250.504 37.4832 248.316 27.046 252.709 24.854C257.102 22.662 277.485 31.2782 290.395 30.9072Z" fill="#D2F0FF"/>
<path d="M191.846 278.097L134.265 278.012C130.175 278.012 126.321 275.82 124.217 272.296L117.181 260.527C116.474 259.33 115.161 258.588 113.764 258.588L18.2622 258.47C16.1246 258.47 14.391 256.733 14.391 254.592C14.391 252.45 16.1246 250.714 18.2622 250.714L113.764 250.832C117.855 250.832 121.709 253.024 123.813 256.548L130.848 268.317C131.555 269.514 132.868 270.256 134.265 270.256L191.846 270.34C193.984 270.34 195.717 272.077 195.717 274.219C195.717 276.36 193.984 278.097 191.846 278.097Z" fill="#4C4C4C"/>
<path d="M122.555 129.381L12.6623 129.227C6.9547 129.219 2.3213 133.848 2.31333 139.566L2.17289 240.33C2.16492 246.048 6.7854 250.689 12.493 250.697L122.386 250.851C128.094 250.859 132.727 246.23 132.735 240.512L132.876 139.748C132.884 134.03 128.263 129.389 122.555 129.381Z" fill="#D2A54C"/>
<path d="M132.868 158.616V139.731C132.902 134.015 128.29 129.378 122.584 129.361L12.6742 129.21C6.96826 129.21 2.33959 133.83 2.32275 139.546V158.431L132.868 158.599V158.616Z" fill="#EA9C00"/>
<path d="M135.174 153.608V139.681C135.208 133.762 130.411 128.957 124.52 128.957L10.7386 128.805C4.83068 128.805 0.0336914 133.594 0.0336914 139.512V153.44L135.191 153.625L135.174 153.608Z" fill="#FEC568"/>
</g>
<defs>
<clipPath id="clip0_1_1085">
<rect width="490" height="463" fill="white"/>
</clipPath>
</defs>
</svg>
